<svg width="56" height="56" viewBox="0 0 56 56" fill="none" xmlns="http://www.w3.org/2000/svg">
<path d="M25.662 3.68669C26.3725 3.27537 27.179 3.05878 28 3.05878C28.821 3.05878 29.6275 3.27537 30.338 3.68669L47.838 13.818C48.5462 14.228 49.1341 14.817 49.5429 15.5259C49.9516 16.2348 50.1667 17.0387 50.1667 17.857V38.143C50.1663 38.9609 49.951 39.7644 49.5423 40.4728C49.1336 41.1813 48.5458 41.7699 47.838 42.1797L30.338 52.3134C29.6275 52.7247 28.821 52.9413 28 52.9413C27.179 52.9413 26.3725 52.7247 25.662 52.3134L8.16199 42.182C7.4538 41.7721 6.86586 41.1831 6.45713 40.4742C6.04841 39.7652 5.83329 38.9613 5.83333 38.143V17.857C5.83369 17.0391 6.04902 16.2357 6.45772 15.5272C6.86642 14.8187 7.45414 14.2301 8.16199 13.8204L25.662 3.68669ZM12.25 18.8814C12.0726 18.7784 11.8712 18.724 11.666 18.7237C11.4609 18.7234 11.2593 18.7772 11.0816 18.8797C10.9039 18.9821 10.7563 19.1296 10.6538 19.3073C10.5513 19.485 10.4974 19.6866 10.4977 19.8917V35.4527C10.498 36.2706 10.7133 37.074 11.1221 37.7825C11.5308 38.491 12.1185 39.0796 12.8263 39.4894L26.2453 47.2594C26.4226 47.3622 26.6238 47.4166 26.8287 47.417C27.0337 47.4174 27.2351 47.3638 27.4127 47.2616C27.5904 47.1594 27.738 47.0123 27.8406 46.8349C27.9433 46.6576 27.9975 46.4563 27.9977 46.2514V30.6904C27.9973 29.8725 27.782 29.069 27.3733 28.3605C26.9646 27.6521 26.3768 27.0635 25.669 26.6537L12.25 18.8814ZM36.7897 12.873C35.6743 12.229 33.8637 12.229 32.7483 12.873C31.633 13.517 31.633 14.5624 32.7483 15.2064C33.8637 15.8504 35.6743 15.8504 36.7897 15.2064C37.905 14.5624 37.905 13.517 36.7897 12.873ZM23.2563 12.873C22.141 12.229 20.3303 12.229 19.215 12.873C18.0997 13.517 18.0997 14.5624 19.215 15.2064C20.3303 15.8504 22.141 15.8504 23.2563 15.2064C24.374 14.5624 24.374 13.517 23.2563 12.873ZM39.648 36.9717C41.041 36.1667 42.1727 34.209 42.1727 32.5967C42.1727 30.9867 41.041 30.3334 39.648 31.1384C38.2527 31.9434 37.121 33.9034 37.121 35.5134C37.121 37.1234 38.2527 37.7767 39.6457 36.9717M14.8517 28.4667C15.967 29.113 16.8723 28.5904 16.8723 27.3C16.8723 26.012 15.967 24.4464 14.8517 23.8C13.7363 23.156 12.831 23.6787 12.831 24.9667C12.831 26.257 13.7363 27.8227 14.8517 28.4667ZM24.955 41.2954C24.955 42.5834 24.0473 43.106 22.932 42.462C21.8167 41.818 20.9113 40.25 20.9113 38.962C20.9113 37.674 21.8167 37.1514 22.932 37.7954C24.0473 38.4394 24.955 40.0074 24.955 41.2954ZM16.8723 36.6334C16.8723 37.9237 15.967 38.4464 14.8517 37.8C13.7363 37.156 12.831 35.5904 12.831 34.3C12.831 33.012 13.7363 32.4894 14.8517 33.1334C15.967 33.7797 16.8723 35.3454 16.8723 36.6334ZM24.9527 31.9667C24.9527 33.257 24.0473 33.7797 22.932 33.1334C21.8143 32.4917 20.9113 30.9237 20.9113 29.6334C20.9113 28.3477 21.8143 27.825 22.932 28.4667C24.0473 29.113 24.9527 30.681 24.9527 31.9667Z" fill="black"/>
</svg>
