<svg width="41" height="40" viewBox="0 0 41 40" fill="none" xmlns="http://www.w3.org/2000/svg">
<path d="M34.1413 40C32.2895 40 30.7154 39.4167 29.4191 38.25C28.1228 37.0833 27.4747 35.6667 27.4747 34C27.4747 33.7667 27.4932 33.5247 27.5302 33.274C27.5672 33.0233 27.6228 32.7987 27.6969 32.6L12.0302 24.4C11.4006 24.9 10.6969 25.292 9.91909 25.576C9.14132 25.86 8.3265 26.0013 7.47465 26C5.6228 26 4.04872 25.4167 2.75243 24.25C1.45613 23.0833 0.807983 21.6667 0.807983 20C0.807983 18.3333 1.45613 16.9167 2.75243 15.75C4.04872 14.5833 5.6228 14 7.47465 14C8.3265 14 9.14132 14.142 9.91909 14.426C10.6969 14.71 11.4006 15.1013 12.0302 15.6L27.6969 7.4C27.6228 7.2 27.5672 6.97533 27.5302 6.726C27.4932 6.47667 27.4747 6.23467 27.4747 6C27.4747 4.33333 28.1228 2.91667 29.4191 1.75C30.7154 0.583333 32.2895 0 34.1413 0C35.9932 0 37.5672 0.583333 38.8635 1.75C40.1598 2.91667 40.808 4.33333 40.808 6C40.808 7.66667 40.1598 9.08333 38.8635 10.25C37.5672 11.4167 35.9932 12 34.1413 12C33.2895 12 32.4747 11.8587 31.6969 11.576C30.9191 11.2933 30.2154 10.9013 29.5858 10.4L13.9191 18.6C13.9932 18.8 14.0487 19.0253 14.0858 19.276C14.1228 19.5267 14.1413 19.768 14.1413 20C14.1413 20.2333 14.1228 20.4753 14.0858 20.726C14.0487 20.9767 13.9932 21.2013 13.9191 21.4L29.5858 29.6C30.2154 29.1 30.9191 28.7087 31.6969 28.426C32.4747 28.1433 33.2895 28.0013 34.1413 28C35.9932 28 37.5672 28.5833 38.8635 29.75C40.1598 30.9167 40.808 32.3333 40.808 34C40.808 35.6667 40.1598 37.0833 38.8635 38.25C37.5672 39.4167 35.9932 40 34.1413 40Z" fill="black"/>
</svg>
