<svg width="52" height="48" viewBox="0 0 52 48" fill="none" xmlns="http://www.w3.org/2000/svg">
<g filter="url(#filter0_d_5_63)">
<path d="M25.9999 0.333374C14.0399 0.333374 4.33325 10.04 4.33325 22C4.33325 33.96 14.0399 43.6667 25.9999 43.6667C37.9599 43.6667 47.6666 33.96 47.6666 22C47.6666 10.04 37.9599 0.333374 25.9999 0.333374ZM36.0533 15.0667C35.7283 18.49 34.3199 26.81 33.6049 30.645C33.3016 32.27 32.6949 32.8117 32.1316 32.8767C30.8749 32.985 29.9216 32.0534 28.7083 31.2517C26.8016 29.995 25.7183 29.215 23.8766 28.0017C21.7316 26.5934 23.1183 25.8134 24.3533 24.5567C24.6783 24.2317 30.2249 19.1834 30.3333 18.7284C30.3483 18.6595 30.3463 18.5879 30.3274 18.5199C30.3085 18.452 30.2734 18.3897 30.2249 18.3384C30.0949 18.23 29.9216 18.2734 29.7699 18.295C29.5749 18.3384 26.5416 20.3534 20.6266 24.34C19.7599 24.925 18.9799 25.2284 18.2866 25.2067C17.5066 25.185 16.0333 24.7734 14.9283 24.405C13.5633 23.9717 12.5016 23.7334 12.5883 22.975C12.6316 22.585 13.1733 22.195 14.1916 21.7834C20.5183 19.0317 24.7216 17.2117 26.8233 16.345C32.8466 13.8317 34.0816 13.3984 34.9049 13.3984C35.0783 13.3984 35.4899 13.4417 35.7499 13.6584C35.9666 13.8317 36.0316 14.07 36.0533 14.2434C36.0316 14.3734 36.0749 14.7634 36.0533 15.0667Z" fill="black"/>
</g>
<defs>
<filter id="filter0_d_5_63" x="0.333252" y="0.333374" width="51.3333" height="51.3333" filterUnits="userSpaceOnUse" color-interpolation-filters="sRGB">
<feFlood flood-opacity="0" result="BackgroundImageFix"/>
<feColorMatrix in="SourceAlpha" type="matrix" values="0 0 0 0 0 0 0 0 0 0 0 0 0 0 0 0 0 0 127 0" result="hardAlpha"/>
<feOffset dy="4"/>
<feGaussianBlur stdDeviation="2"/>
<feComposite in2="hardAlpha" operator="out"/>
<feColorMatrix type="matrix" values="0 0 0 0 0 0 0 0 0 0 0 0 0 0 0 0 0 0 0.25 0"/>
<feBlend mode="normal" in2="BackgroundImageFix" result="effect1_dropShadow_5_63"/>
<feBlend mode="normal" in="SourceGraphic" in2="effect1_dropShadow_5_63" result="shape"/>
</filter>
</defs>
</svg>
