<svg width="48" height="48" viewBox="0 0 48 48" fill="none" xmlns="http://www.w3.org/2000/svg">
<path d="M43.008 36.762H38.444C36.718 36.762 36.198 35.364 33.104 32.268C30.4 29.662 29.258 29.338 28.574 29.338C27.628 29.338 27.37 29.598 27.37 30.9V35.004C27.37 36.114 27.01 36.764 24.11 36.764C21.2966 36.575 18.5683 35.7203 16.1499 34.2703C13.7316 32.8203 11.6922 30.8165 10.2 28.424C6.65677 24.014 4.19141 18.8382 3 13.308C3 12.624 3.26 12.004 4.564 12.004H9.124C10.296 12.004 10.718 12.526 11.178 13.732C13.392 20.248 17.17 25.916 18.704 25.916C19.292 25.916 19.548 25.656 19.548 24.19V17.478C19.354 14.416 17.728 14.158 17.728 13.05C17.7486 12.7577 17.8823 12.4849 18.1007 12.2896C18.3192 12.0943 18.6052 11.9918 18.898 12.004H26.066C27.046 12.004 27.37 12.492 27.37 13.664V22.724C27.37 23.702 27.79 24.026 28.086 24.026C28.674 24.026 29.126 23.702 30.204 22.626C32.5147 19.808 34.4025 16.6683 35.808 13.306C35.9519 12.9023 36.2238 12.5567 36.5824 12.322C36.941 12.0873 37.3665 11.9763 37.794 12.006H42.356C43.724 12.006 44.014 12.69 43.724 13.666C42.0647 17.3828 40.0117 20.911 37.6 24.19C37.108 24.94 36.912 25.33 37.6 26.21C38.052 26.894 39.652 28.23 40.726 29.5C42.29 31.06 43.588 32.864 44.57 34.84C44.962 36.112 44.31 36.762 43.008 36.762Z" fill="black"/>
</svg>
